/* XPM */
static char * awesome_mode_line_xpm[] = {
"26 16 14 1",
" 	c None",
".	c #FFFFFF",
"+	c #00FFF0",
"@	c #00FCFF",
"#	c #00DEFF",
"$	c #00C6FF",
"%	c #00B4FF",
"&	c #009CFF",
"*	c #0084FF",
"=	c #0078FF",
"-	c #0054FF",
";	c #0030FF",
">	c #1200FF",
",	c #4200FF",
"..........................",
"..........................",
"..+++++++.+.......+.......",
"........@.@.......@.......",
"..#######.#######.#.......",
"..$.....$.$..$..$.$.......",
"..%.....%.%..%..%.%.......",
"..&.....&.&..&..&.&.......",
"..*.....*.*..*..*.*.......",
"..=.....=.=..=..=.=.......",
"..-.....-.-..-..-.-.......",
"..;.....;.;..;..;.;.......",
"..>.....>.>..>..>.>.......",
"..,,,,,,,.,..,..,.,,,,,,..",
"..........................",
".........................."};
