#define awesome_mode_line_width 26
#define awesome_mode_line_height 16
static unsigned char awesome_mode_line_bits[] = {
   0x00, 0x00, 0x00, 0x00, 0x00, 0x00, 0x00, 0x00, 0x00, 0x00, 0x00, 0x00,
   0x00, 0x00, 0x00, 0x00, 0x00, 0x00, 0x00, 0x00, 0x04, 0x25, 0x01, 0x00,
   0x00, 0x00, 0x04, 0x00, 0x04, 0x25, 0x01, 0x00, 0x04, 0x25, 0x05, 0x00,
   0x04, 0x25, 0x05, 0x00, 0x04, 0x25, 0x05, 0x00, 0x04, 0x25, 0x05, 0x00,
   0x04, 0x25, 0x05, 0x00, 0xfc, 0x25, 0xfd, 0x00, 0x00, 0x00, 0x00, 0x00,
   0x00, 0x00, 0x00, 0x00 };
