#define cons_width 26
#define cons_height 14
static unsigned char cons_bits[] = {
   0xff, 0xff, 0x1f, 0x00, 0x01, 0x04, 0x10, 0x00, 0x01, 0x04, 0x10, 0x00,
   0x01, 0x04, 0x10, 0x01, 0x21, 0x84, 0xff, 0x03, 0x21, 0x04, 0x10, 0x01,
   0x21, 0x04, 0x10, 0x00, 0x21, 0x04, 0x10, 0x00, 0xff, 0xff, 0x1f, 0x00,
   0x20, 0x00, 0x00, 0x00, 0x20, 0x00, 0x00, 0x00, 0x20, 0x00, 0x00, 0x00,
   0x70, 0x00, 0x00, 0x00, 0x20, 0x00, 0x00, 0x00 };
