/* XPM */
static char * cons_xpm[] = {
"26 14 3 1",
" 	c None",
".	c #000000",
"+	c #FFFFFF",
".....................+++++",
".+++++++++.+++++++++.+++++",
".+++++++++.+++++++++.+++++",
".+++++++++.+++++++++.+++.+",
".++++.++++.++++...........",
".++++.++++.+++++++++.+++.+",
".++++.++++.+++++++++.+++++",
".++++.++++.+++++++++.+++++",
".....................+++++",
"+++++.++++++++++++++++++++",
"+++++.++++++++++++++++++++",
"+++++.++++++++++++++++++++",
"++++...+++++++++++++++++++",
"+++++.++++++++++++++++++++"};
