#define stumpwm_width 25
#define stumpwm_height 14
static unsigned char stumpwm_bits[] = {
   0xff, 0xff, 0xff, 0x01, 0x01, 0x00, 0x00, 0x00, 0x01, 0x00, 0x00, 0x00,
   0xff, 0xff, 0xff, 0x01, 0x00, 0x00, 0x00, 0x01, 0x00, 0x00, 0x00, 0x01,
   0xff, 0xff, 0xff, 0x01, 0x00, 0x00, 0x00, 0x00, 0x41, 0xf0, 0xff, 0x01,
   0x41, 0x10, 0x04, 0x01, 0x41, 0x10, 0x04, 0x01, 0x41, 0x10, 0x04, 0x01,
   0x41, 0x10, 0x04, 0x01, 0xff, 0x1f, 0x04, 0x01 };
