/* XPM */
static char * stumpwm_xpm[] = {
"25 14 109 2",
"  	c None",
". 	c #000000",
"+ 	c #D7DAED",
"@ 	c #D5D8EB",
"# 	c #D8DBEE",
"$ 	c #D6D9EC",
"% 	c #D6D9EB",
"& 	c #D1D4E7",
"* 	c #D8DBED",
"= 	c #DCDFF2",
"- 	c #E0E3F6",
"; 	c #E2E5F7",
"> 	c #D1D4E6",
", 	c #DADCEF",
"' 	c #E6E9FD",
") 	c #E1E4F7",
"! 	c #E6E9FA",
"~ 	c #D5D8ED",
"{ 	c #CED1E6",
"] 	c #D5D8EE",
"^ 	c #D4D6EC",
"/ 	c #D4D7EA",
"( 	c #D5D7EA",
"_ 	c #D6D8EB",
": 	c #DADDF0",
"< 	c #DDE0F3",
"[ 	c #E7EAFD",
"} 	c #E4E7FB",
"| 	c #DCDFF4",
"1 	c #CFD2E7",
"2 	c #D1D4E9",
"3 	c #D0D3E8",
"4 	c #CDCFE5",
"5 	c #E3E6F9",
"6 	c #D2D5E7",
"7 	c #D0D3E6",
"8 	c #CFD1E4",
"9 	c #D2D4E7",
"0 	c #D9DCEF",
"a 	c #D5D8EA",
"b 	c #D4D7E9",
"c 	c #DEE1F4",
"d 	c #D9DCEE",
"e 	c #E2E5F8",
"f 	c #E4E7FA",
"g 	c #D8DAF0",
"h 	c #D9DCF1",
"i 	c #D8DBF0",
"j 	c #D8DBF1",
"k 	c #DDE0F2",
"l 	c #D3D5E8",
"m 	c #D3D6E8",
"n 	c #D7DAEC",
"o 	c #D7D9EC",
"p 	c #DCDEF3",
"q 	c #D6D9EE",
"r 	c #D7DAF0",
"s 	c #D6D9EF",
"t 	c #D4D6E9",
"u 	c #DBDEF1",
"v 	c #E3E5F9",
"w 	c #E6E9FC",
"x 	c #CCCFE4",
"y 	c #DCDFF5",
"z 	c #DADDEF",
"A 	c #E0E3F7",
"B 	c #D6D9ED",
"C 	c #D5D7EB",
"D 	c #DDE0F4",
"E 	c #D4D7EB",
"F 	c #D7DAEE",
"G 	c #D2D5E8",
"H 	c #D9DBEE",
"I 	c #DEE0F3",
"J 	c #DFE1F3",
"K 	c #DBDEF0",
"L 	c #DFE1F5",
"M 	c #DADDF3",
"N 	c #D4D7EC",
"O 	c #D3D6EB",
"P 	c #CBCEE3",
"Q 	c #DDE0F5",
"R 	c #DDDFF2",
"S 	c #E0E3F4",
"T 	c #EDF2FC",
"U 	c #D9DEEB",
"V 	c #D9DCEB",
"W 	c #D4D7ED",
"X 	c #D5D7ED",
"Y 	c #D2D5EA",
"Z 	c #D3D5EB",
"` 	c #DFE2F7",
" .	c #DFE2F5",
"..	c #D8DCEC",
"+.	c #F0F4FD",
"@.	c #D3D8E4",
"#.	c #D6DAE7",
"$.	c #E4E7F9",
"%.	c #DBDDF3",
"&.	c #DCDFF3",
"*.	c #D8DBEB",
"=.	c #DEE2EF",
"-.	c #D8DCE9",
";.	c #E5E9F7",
">.	c #E1E4F6",
",.	c #DEE1F1",
"'.	c #DADEEB",
").	c #E7EBF9",
"!.	c #E7EBF8",
". . . . . . . . . . . . . . . . . . . . . . . . . ",
". + @ # + $ $ # % & * = # - ; > , ' ) ! ~ { { ] ^ ",
". $ / * $ ( + * % _ : = # : ) = < [ } | 1 2 1 3 4 ",
". . . . . . . . . . . . . . . . . . . . . . . . . ",
"5 # 6 7 8 9 0 + a b & + c = d ) e f < g 2 h i j . ",
"k % l m a n n o + # ( ( = a / < f = e p q h r s . ",
". . . . . . . . . . . . . . . . . . . . . . . . . ",
"- < m 8 b t # * 6 > n n u v - + u d - w ] x 2 { y ",
". c b 7 + > . > % n b z . . . . . . . . . . . . . ",
". A B C D E . F G G / u . @ + $ * H . I J n K L . ",
". M N O i P . q ^ Q e e . 0 R , 0 = . S T U V ; . ",
". i ] W X O . Y Z ` 5 ) . <  .u 0 , . ..+.@.#.$.. ",
". j q Y 3 W . ~ %.&.0 d . + u : # # . *.=.-.;.>.. ",
". . . . . . . . . . . . . a _ $ $ d . ,.'.).!.K . "};
